<svg width="35" height="26" viewBox="0 0 35 26" fill="none" xmlns="http://www.w3.org/2000/svg">
<path d="M24.6142 4.08828C23.0869 4.31502 22.0934 6.05185 22.1292 7.29747C23.1028 6.70539 24.1993 6.26464 25.3959 5.99749C25.3967 5.99872 25.3972 5.99994 25.3979 6.00116C24.0732 6.4997 22.9073 7.20467 21.9435 8.0901C21.2809 8.69859 20.7161 9.39327 20.2567 10.1609C19.3784 6.5859 17.6057 3.18326 15.0212 0.178528C14.9177 0.260802 14.9634 0.224313 14.86 0.306587C16.5296 2.57624 17.7371 5.00089 18.4807 7.49312C17.4531 6.93164 16.3908 6.45269 15.3025 6.05944C12.2694 4.96392 9.04101 4.52683 5.83572 4.78198C8.89336 4.27486 12.0272 4.40758 15.0398 5.16519C14.4795 2.87253 11.5294 0.121961 8.67889 0.752242C6.04503 1.455 3.20996 3.16489 0.80188 4.15708C2.76137 5.7607 4.99871 8.17678 7.43038 9.58035C10.19 11.0108 13.9579 9.04924 14.9072 6.92063C16.3215 7.54381 17.6678 8.31513 18.921 9.22652C19.5622 12.2775 19.5221 15.3988 18.7942 18.4364H20.6805C21.004 16.1319 20.9544 13.829 20.5562 11.5811C20.9645 10.3522 21.6268 9.24586 22.5152 8.30411C23.3954 9.25394 25.778 9.63642 26.896 8.37904C27.832 7.22965 28.5337 5.57191 29.2771 4.36693C27.8986 4.28441 26.1369 3.93205 24.6142 4.08828ZM5.69249 4.80476C5.69273 4.80745 5.69273 4.81014 5.69298 4.81283C5.69273 4.81014 5.69225 4.80745 5.69175 4.80476H5.69249Z" fill="#DBEEE8"/>
<path d="M34.1982 25.8518C34.0694 24.5643 33.0071 23.5537 31.696 23.495C31.6955 23.494 31.6952 23.493 31.695 23.4918C31.3471 22.6276 30.4978 22.0194 29.507 22.0194C29.3095 22.0194 29.1208 22.0429 28.9381 22.087C28.941 22.0635 28.941 22.0429 28.941 22.0194C28.941 21.1523 28.2362 20.453 27.3694 20.453C27.1542 20.453 26.9479 20.4941 26.7619 20.5735C26.7943 20.4706 26.8091 20.359 26.8091 20.2473C26.8091 19.6244 26.3167 19.1129 25.6974 19.0835H25.6971C25.6175 18.8016 25.3606 18.5937 25.0523 18.5937C24.9365 18.5937 24.8294 18.6256 24.7341 18.6768C24.7336 18.676 24.7334 18.6755 24.7329 18.6748C24.6356 18.5367 24.5088 18.4133 24.3585 18.3134C24.273 18.2575 24.1845 18.2135 24.0931 18.1782C24.0927 18.178 24.0922 18.178 24.0914 18.1777C24.0605 17.7399 23.6981 17.3932 23.251 17.3932C23.1505 17.3932 23.0552 17.4137 22.9658 17.4458C22.8921 17.2071 22.6717 17.0325 22.4078 17.0325C22.3862 17.0325 22.3658 17.0367 22.3447 17.0389C22.2422 16.9113 22.0867 16.828 21.9101 16.828C21.7526 16.828 21.6111 16.8934 21.5094 16.998C21.3829 16.8035 21.1642 16.6743 20.9146 16.6743C20.6515 16.6743 20.4243 16.8187 20.3019 17.031C20.2378 16.8251 20.0474 16.6743 19.8197 16.6743C19.5467 16.6743 19.3259 16.8895 19.3146 17.1588C19.3131 17.1598 19.3119 17.161 19.3106 17.162C19.3011 16.8912 19.0792 16.6743 18.8053 16.6743C18.7122 16.6743 18.6262 16.7009 18.5513 16.7445C18.4699 16.7012 18.3783 16.6743 18.2795 16.6743C18.0685 16.6743 17.8855 16.7879 17.7838 16.9558H17.783C17.7536 16.95 17.727 16.95 17.6976 16.95C17.2435 16.95 16.8601 17.2556 16.7421 17.6701C16.7421 17.6706 16.7419 17.6709 16.7419 17.6713C16.7409 17.6713 16.7397 17.6711 16.7387 17.6711C16.5124 17.6711 16.3206 17.8124 16.2434 18.0107C16.0122 18.1082 15.8356 18.3036 15.7565 18.5431C15.7437 18.5421 15.7312 18.5391 15.7182 18.5391C15.4796 18.5391 15.2816 18.7101 15.2389 18.9356C15.2337 18.9353 15.2288 18.9341 15.2236 18.9341C14.9561 18.9341 14.7333 19.1182 14.6711 19.3656C14.6706 19.3658 14.6699 19.3658 14.6694 19.366C14.5485 19.4219 14.4365 19.5042 14.3451 19.6011C14.3444 19.6019 14.3439 19.6026 14.3434 19.6033C14.2547 19.5529 14.1535 19.5218 14.0441 19.5218C13.7083 19.5218 13.4361 19.7931 13.4361 20.1278C13.4361 20.1447 13.4398 20.1604 13.441 20.1768L13.44 20.177C13.1953 20.2593 12.9772 20.4004 12.8001 20.5825C12.7993 20.5833 12.7988 20.5845 12.7978 20.5852C12.6966 20.5034 12.5691 20.4523 12.4284 20.4523C12.1026 20.4523 11.8385 20.7155 11.8385 21.0399C11.8385 21.0485 11.8407 21.0563 11.841 21.0647C11.8402 21.0647 11.8392 21.0644 11.8385 21.0644C10.7416 21.0644 9.81268 21.7875 9.51198 22.7839C9.51148 22.7856 9.51124 22.7875 9.51075 22.7895C8.98869 22.8404 8.57916 23.2618 8.5514 23.7888C7.82838 24.2051 7.33458 24.969 7.29797 25.8523H34.1982V25.8518Z" fill="#DBEEE8"/>
</svg>
