<svg width="27" height="19" viewBox="0 0 27 19" fill="none" xmlns="http://www.w3.org/2000/svg">
<path d="M9.40611 0C9.3447 0.048728 9.37197 0.0271794 9.31055 0.0759074C11.729 3.36321 12.5149 7.19779 11.6442 10.8301H12.763C13.3045 6.97423 12.0938 3.12472 9.40611 0Z" fill="#30AB84"/>
<path d="M26.9002 18.2449C26.7712 16.9574 25.7092 15.9468 24.398 15.8881C24.3975 15.8871 24.3973 15.8861 24.397 15.8849C24.0492 15.0208 23.1999 14.4125 22.2091 14.4125C22.0115 14.4125 21.8229 14.436 21.6401 14.4801C21.643 14.4566 21.643 14.436 21.643 14.4125C21.643 13.5455 20.9382 12.8461 20.0715 12.8461C19.8563 12.8461 19.6499 12.8873 19.4639 12.9666C19.4963 12.8638 19.5111 12.7521 19.5111 12.6404C19.5111 12.0175 19.0185 11.506 18.3994 11.4766H18.3992C18.3196 11.1948 18.0626 10.9869 17.7543 10.9869C17.6386 10.9869 17.5315 11.0187 17.4364 11.0699C17.4359 11.0691 17.4356 11.0687 17.4352 11.0679C17.3379 10.9298 17.2111 10.8064 17.0607 10.7065C16.9753 10.6507 16.8868 10.6066 16.7954 10.5713C16.7949 10.5711 16.7944 10.5711 16.7937 10.5708C16.7627 10.133 16.4004 9.7863 15.9533 9.7863C15.8525 9.7863 15.7575 9.80687 15.668 9.83895C15.5943 9.60021 15.374 9.42562 15.1101 9.42562C15.0885 9.42562 15.0681 9.42978 15.047 9.43198C14.9445 9.30441 14.789 9.22116 14.6124 9.22116C14.4549 9.22116 14.3131 9.28653 14.2117 9.39109C14.0852 9.19667 13.8665 9.06738 13.6169 9.06738C13.3538 9.06738 13.1265 9.21185 13.0042 9.4239C12.9401 9.21797 12.7497 9.06738 12.5219 9.06738C12.249 9.06738 12.0281 9.28262 12.0168 9.55197C12.0154 9.55295 12.0144 9.55417 12.0129 9.55515C12.0033 9.28433 11.7815 9.06738 11.5073 9.06738C11.4142 9.06738 11.3282 9.09407 11.2533 9.13766C11.172 9.09431 11.0803 9.06738 10.9816 9.06738C10.7703 9.06738 10.5875 9.181 10.4858 9.34898L10.4851 9.34873C10.4556 9.34285 10.4291 9.34286 10.3996 9.34286C9.94557 9.34286 9.56208 9.64844 9.44415 10.063C9.44391 10.0635 9.44391 10.0642 9.44391 10.0642C9.44268 10.0642 9.4417 10.064 9.44071 10.064C9.21445 10.064 9.02258 10.2053 8.94544 10.4034C8.71426 10.5008 8.53762 10.6962 8.45851 10.9357C8.44574 10.9347 8.43321 10.9318 8.42019 10.9318C8.18164 10.9318 7.98363 11.1027 7.94088 11.3282C7.93572 11.328 7.93081 11.3267 7.92565 11.3267C7.65811 11.3267 7.43529 11.5106 7.37313 11.7582C7.37264 11.7584 7.3719 11.7584 7.37141 11.7587C7.25054 11.8145 7.13851 11.8968 7.04712 11.9938C7.04663 11.9945 7.0459 11.9952 7.0454 11.996C6.95672 11.9455 6.8555 11.9144 6.74618 11.9144C6.41034 11.9144 6.13789 12.1857 6.13789 12.5207C6.13789 12.5374 6.14157 12.5533 6.1428 12.5697L6.14182 12.5699C5.89713 12.6522 5.67897 12.7932 5.50209 12.9754C5.50135 12.9762 5.50061 12.9774 5.49988 12.9781C5.39866 12.8963 5.27116 12.8451 5.13038 12.8451C4.80462 12.8451 4.54077 13.1084 4.54077 13.4331C4.54077 13.4414 4.54298 13.4492 4.54323 13.4578C4.54224 13.4578 4.54151 13.4576 4.54077 13.4576C3.44384 13.4576 2.51495 14.1806 2.21425 15.177C2.21376 15.1787 2.21351 15.1807 2.21302 15.1826C1.69097 15.2336 1.28143 15.655 1.25367 16.1819C0.530653 16.5982 0.0368509 17.3622 0 18.2454H26.9002V18.2449Z" fill="#272B2A"/>
</svg>
