<svg width="49" height="61" viewBox="0 0 49 61" fill="none" xmlns="http://www.w3.org/2000/svg">
<path d="M37.2752 30.5408C33.7462 31.0646 31.4506 35.0774 31.5336 37.9555C33.783 36.5875 36.3166 35.5691 39.0812 34.952C39.0824 34.9542 39.0836 34.9567 39.0851 34.9589C36.0611 36.0968 33.399 37.7046 31.1884 39.7159C30.8366 40.0359 30.4947 40.3643 30.1662 40.7044C30.1969 34.4111 31.0622 28.1255 32.7386 22.115C32.7681 22.0097 32.7932 21.9057 32.816 21.8023C33.9908 19.2227 35.7074 16.9371 37.8889 15.0507C39.1745 16.2397 42.4162 16.4204 43.8598 14.5614C45.0714 12.8459 45.8315 10.5026 46.6587 8.79879C44.7086 8.87764 42.242 8.60241 40.2295 8.94865C38.1439 9.40116 37.0087 12.0726 37.2723 13.8131C38.907 12.8567 40.6889 12.0932 42.5938 11.5486C42.596 11.5528 42.5982 11.5569 42.6007 11.5611C40.3867 12.4078 38.3746 13.5504 36.6055 14.9454C35.274 15.9954 34.083 17.1901 33.0516 18.5155C34.1112 12.4142 32.5944 6.15352 28.7826 0.759399C28.6691 0.833348 28.7194 0.800539 28.6059 0.874243C32.0338 6.60456 32.8549 12.9407 31.1428 18.7807C31.0794 18.8911 31.0184 19.0192 30.9614 19.1678C30.8858 19.3657 30.8126 19.5648 30.7386 19.7633C30.0775 17.6462 29.0953 15.6496 27.8235 13.8129C26.4664 11.8532 24.7852 10.0738 22.8071 8.5314C22.8108 8.52797 22.8142 8.5243 22.8179 8.52087C24.5771 9.66145 26.1438 10.9859 27.5009 12.46C28.3099 10.7793 27.9925 7.7231 26.0217 6.61974C24.0919 5.64641 21.5087 5.16207 19.5585 4.47914C19.8656 6.46009 19.9057 9.0679 20.5982 11.1799C21.4809 13.5085 24.8194 14.3286 26.4914 13.5222C28.3001 16.4058 29.3683 19.6132 29.6336 22.9635C28.6258 26.1269 27.8326 29.3814 27.2594 32.69C26.6843 31.8915 26.0819 31.1074 25.4525 30.3388C23.1933 27.5801 20.5884 25.0203 17.6624 22.7032C20.5889 24.5673 23.2571 26.6707 25.6522 28.9749C26.6376 25.9873 26.0667 21.5697 23.1024 19.7095C19.8057 17.8343 15.3204 16.7586 11.9628 15.3903C12.3262 18.8897 12.166 23.464 13.1934 27.2266C14.6805 31.8376 21.6242 33.4645 24.1882 31.331C24.2676 31.2651 24.3447 31.1943 24.4197 31.1194C25.3176 32.4272 26.1372 33.7681 26.8781 35.1374C26.5479 37.5092 26.33 39.9034 26.2276 42.307C24.8624 41.5957 23.4574 40.9816 22.0239 40.4639C17.4492 38.8118 12.5795 38.1522 7.74487 38.5332C12.3569 37.7721 17.0831 37.9739 21.6266 39.1165C20.7798 35.6519 16.3218 31.4955 12.0142 32.4478C8.03427 33.51 3.74975 36.0936 0.11084 37.5931C3.07193 40.0163 6.45264 43.6675 10.1277 45.7885C14.3002 47.9514 19.9983 44.9824 21.4288 41.7637C23.0756 42.4892 24.6609 43.3489 26.1681 44.3352C26.1244 47.1556 26.2384 49.9833 26.5165 52.7968L26.5799 53.4369H31.2619L31.1221 52.6097C30.5927 49.4723 30.2849 46.2929 30.192 43.1073C30.847 42.1082 31.5901 41.1645 32.4205 40.2837C34.4542 42.4784 39.9646 43.3604 42.5476 40.4549C44.71 37.7991 46.3312 33.9694 48.049 31.185C44.8641 30.994 40.7935 30.1801 37.2752 30.5408ZM17.345 22.9862C17.345 22.9862 17.3455 22.9867 17.346 22.9872C17.3458 22.9867 17.345 22.9862 17.345 22.9862ZM7.50215 38.5721C7.5024 38.5763 7.50264 38.5802 7.50289 38.5844C7.5024 38.5802 7.50165 38.5763 7.50116 38.5724L7.50215 38.5721Z" fill="#DBEEE8"/>
<path d="M43.2638 60.8522C43.135 59.5647 42.0725 58.5541 40.7616 58.4954C40.7611 58.4944 40.7609 58.4934 40.7606 58.4922C40.4127 57.6281 39.5635 57.0198 38.5727 57.0198C38.3751 57.0198 38.1865 57.0433 38.0034 57.0874C38.0064 57.0639 38.0064 57.0433 38.0064 57.0198C38.0064 56.1528 37.3015 55.4534 36.4348 55.4534C36.2196 55.4534 36.0132 55.4946 35.8275 55.5739C35.8599 55.4711 35.8747 55.3594 35.8747 55.2477C35.8747 54.6248 35.3821 54.1133 34.763 54.0839C34.6834 53.8021 34.4262 53.5942 34.1179 53.5942C34.0022 53.5942 33.895 53.626 33.7997 53.6772C33.7992 53.6764 33.799 53.676 33.7985 53.6752C33.7012 53.5371 33.5744 53.4137 33.4241 53.3138C33.3386 53.258 33.2502 53.2139 33.1588 53.1786C33.1583 53.1784 33.1578 53.1784 33.157 53.1781C33.1261 52.7403 32.7637 52.3936 32.3166 52.3936C32.2159 52.3936 32.1208 52.4142 32.0314 52.4462C31.9577 52.2075 31.7373 52.0329 31.4734 52.0329C31.4518 52.0329 31.4314 52.0371 31.4103 52.0393C31.3079 51.9117 31.1523 51.8285 30.9757 51.8285C30.8182 51.8285 30.6767 51.8938 30.575 51.9984C30.4485 51.804 30.2298 51.6747 29.9802 51.6747C29.7171 51.6747 29.4899 51.8191 29.3675 52.0314C29.3034 51.8255 29.113 51.6747 28.8853 51.6747C28.6123 51.6747 28.3915 51.8899 28.3802 52.1593C28.3789 52.1602 28.3777 52.1615 28.3762 52.1624C28.3667 51.8916 28.1448 51.6744 27.8709 51.6744C27.778 51.6744 27.6918 51.7011 27.6169 51.7447C27.5355 51.7014 27.4439 51.6744 27.3452 51.6744C27.1341 51.6744 26.9511 51.7881 26.8494 51.956C26.8491 51.956 26.8489 51.956 26.8487 51.956C26.8192 51.9502 26.7926 51.9502 26.7632 51.9502C26.3092 51.9502 25.9257 52.2557 25.8077 52.6703C25.8077 52.6708 25.8075 52.671 25.8075 52.6715C25.8063 52.6715 25.8053 52.6713 25.8043 52.6713C25.578 52.6713 25.3862 52.8126 25.309 53.0109C25.0778 53.1084 24.9012 53.3038 24.8221 53.5432C24.8093 53.5423 24.7968 53.5393 24.7838 53.5393C24.5452 53.5393 24.347 53.7102 24.3045 53.9358C24.2993 53.9355 24.2944 53.9343 24.2892 53.9343C24.0217 53.9343 23.7989 54.1184 23.7367 54.3657C23.7362 54.366 23.7355 54.366 23.735 54.3662C23.6141 54.4221 23.5021 54.5043 23.4107 54.6013C23.41 54.602 23.4095 54.6028 23.409 54.6035C23.3203 54.5531 23.2191 54.522 23.1098 54.522C22.7739 54.522 22.5015 54.7933 22.5015 55.1282C22.5015 55.1449 22.5052 55.1608 22.5064 55.1772C22.5061 55.1775 22.5057 55.1775 22.5054 55.1775C22.2607 55.2597 22.0426 55.4008 21.8657 55.583C21.8649 55.5837 21.8644 55.5849 21.8635 55.5857C21.762 55.5039 21.6347 55.4527 21.494 55.4527C21.1682 55.4527 20.9041 55.7159 20.9041 56.0404C20.9041 56.0489 20.9063 56.0568 20.9066 56.0651C20.9056 56.0651 20.9048 56.0649 20.9041 56.0649C19.8072 56.0649 18.8783 56.7879 18.5776 57.7841C18.5771 57.7858 18.5769 57.7877 18.5764 57.7897C18.0543 57.8406 17.6448 58.262 17.617 58.789C16.894 59.2052 16.4002 59.9692 16.3636 60.8524H43.2638V60.8522Z" fill="#DBEEE8"/>
</svg>
