<svg width="50" height="82" viewBox="0 0 50 82" fill="none" xmlns="http://www.w3.org/2000/svg">
<path d="M38.5228 50.7342C34.8694 51.2766 32.493 55.4305 32.579 58.4102C34.9077 56.9939 37.5305 55.9398 40.3924 55.3007C40.3936 55.3032 40.3951 55.3054 40.3963 55.3078C37.3229 56.4643 34.6095 58.0882 32.3458 60.1174C31.937 60.484 31.5422 60.8633 31.1632 61.2558C31.1949 54.7529 32.0879 48.2579 33.8172 42.0462C34.9458 38.9109 36.7092 36.0475 39.0392 33.5793C40.7628 34.8819 44.7685 34.7027 46.3084 32.2406C47.5805 29.9851 48.2205 27.0157 49.0223 24.8224C46.6396 25.1613 43.5785 25.13 41.1527 25.8048C38.6503 26.619 37.5914 30.0378 38.1324 32.1407C40.0184 30.764 42.1094 29.6061 44.3786 28.7013C44.3818 28.7062 44.3853 28.7109 44.3885 28.7158C41.7779 30.0295 39.4472 31.6769 37.4509 33.6079C36.6144 34.4172 35.8378 35.2767 35.1229 36.1819C35.6008 32.2183 35.6015 28.2429 35.1421 24.3359C35.9078 20.4298 37.657 16.8349 40.2737 13.7854C41.9593 14.938 45.7321 14.5898 47.0747 12.1972C48.1738 10.0115 48.6443 7.18016 49.3027 5.07408C47.0688 5.50039 44.1782 5.60764 41.9187 6.35301C39.5934 7.2333 38.7476 10.5076 39.3529 12.4683C41.0711 11.0848 42.9928 9.89816 45.094 8.94294C45.0972 8.94735 45.1007 8.95176 45.1039 8.95592C42.6987 10.3127 40.5729 11.9717 38.7756 13.8836C37.0119 15.7597 35.5646 17.8793 34.4812 20.1967C33.9722 17.6986 33.2688 15.2431 32.3822 12.8502C31.3258 9.99904 30.0063 7.23819 28.4291 4.60566C29.2074 5.52047 29.9093 6.47128 30.5347 7.45098C31.4452 6.33122 31.7707 4.00157 30.505 2.81251C29.2381 1.72189 27.3887 0.876615 26.0522 0C25.9112 1.5451 25.452 3.51136 25.5758 5.22663C25.81 7.20979 28.3298 8.46766 29.7125 8.04649C31.7371 12.897 32.9367 17.9694 33.3221 23.0689C32.3316 21.4447 31.1342 19.9557 29.754 18.6207C28.0073 16.9309 25.9726 15.4857 23.6883 14.3363C23.6913 14.3322 23.694 14.3278 23.6969 14.3236C25.6824 15.1152 27.5117 16.1282 29.1619 17.3327C29.6353 15.4928 28.7089 12.5016 26.5195 11.7895C24.3968 11.1991 21.7188 11.2265 19.634 10.93C20.3356 12.8488 20.8955 15.4468 22.0084 17.4202C23.3545 19.5725 26.8543 19.7307 28.3645 18.594C30.8037 21.1781 32.5323 24.256 33.4499 27.6452C33.3673 31.8532 32.7335 36.0397 31.5545 40.0944L31.5634 40.0951C31.3086 40.7959 31.0644 41.5018 30.8305 42.2124C30.0908 40.242 29.1064 38.37 27.8967 36.6232C26.3165 34.341 24.3529 32.2724 22.0494 30.4766C22.0536 30.4724 22.0578 30.4685 22.0617 30.4643C24.1106 31.7927 25.9348 33.3349 27.5154 35.0516C28.4576 33.0944 28.0878 29.5353 25.7928 28.2505C23.5453 27.117 20.5371 26.5531 18.2663 25.7575C18.624 28.0644 18.6707 31.1012 19.477 33.5606C20.5056 36.2747 24.3993 37.229 26.3448 36.2862C28.1446 39.1556 29.313 42.3013 29.8078 45.5904C29.1374 48.0074 28.5848 50.4683 28.1534 52.9593C27.5579 52.1326 26.9344 51.3209 26.2829 50.5254C23.9441 47.6697 21.2476 45.0198 18.2184 42.6209C21.2481 44.5507 24.0102 46.7282 26.4895 49.1135C27.5098 46.0206 26.9184 41.4475 23.8497 39.5219C20.4368 37.5806 15.7936 36.4672 12.3179 35.0504C12.694 38.6729 12.5282 43.4086 13.5919 47.3034C15.1315 52.0771 22.3197 53.7612 24.9739 51.5526C25.056 51.4842 25.1361 51.411 25.2137 51.3334C26.1433 52.6875 26.9916 54.0754 27.7586 55.4929C27.4169 57.9482 27.1914 60.4269 27.0852 62.9153C25.6719 62.1789 24.2175 61.5433 22.7334 61.0073C17.9978 59.2969 12.9566 58.614 7.95176 59.0084C12.7262 58.2207 17.6187 58.4293 22.3224 59.6123C21.4458 56.0257 16.8306 51.7227 12.3714 52.7088C8.25123 53.8082 3.81585 56.4829 0.0489502 58.0354C3.11421 60.544 6.61406 64.3237 10.4185 66.5194C14.7382 68.7585 20.6368 65.6849 22.1177 62.3528C23.8225 63.1038 25.4636 63.9939 27.0238 65.015C26.9784 67.9347 27.0965 70.8618 27.3845 73.7745L27.4501 74.4371H32.297L32.1522 73.5808C31.6041 70.3327 31.2853 67.0417 31.1892 63.7436C31.8673 62.7093 32.6367 61.7323 33.4961 60.8207C35.6015 63.0928 41.306 64.0056 43.9799 60.998C46.2185 58.2486 47.8969 54.284 49.6751 51.4017C46.3787 51.2031 42.1646 50.3606 38.5228 50.7342ZM17.8904 42.9132C17.8904 42.9132 17.8909 42.914 17.8914 42.9142C17.8909 42.914 17.8907 42.9137 17.8904 42.9132Z" fill="#DBEEE8"/>
<path d="M43.9148 81.852C43.7861 80.5645 42.7236 79.5539 41.4127 79.4951C41.4122 79.4942 41.4119 79.4932 41.4117 79.492C41.0638 78.6278 40.2145 78.0196 39.2237 78.0196C39.0262 78.0196 38.8375 78.0431 38.6547 78.0872C38.6577 78.0637 38.6577 78.0431 38.6577 78.0196C38.6577 77.1525 37.9528 76.4532 37.0861 76.4532C36.8709 76.4532 36.6645 76.4943 36.4786 76.5737C36.511 76.4708 36.5257 76.3592 36.5257 76.2475C36.5257 75.6246 36.0334 75.113 35.4141 75.0837H35.4138C35.3342 74.8018 35.0772 74.5939 34.7689 74.5939C34.6532 74.5939 34.5461 74.6258 34.451 74.6769C34.4505 74.6762 34.4503 74.6757 34.4498 74.675C34.3525 74.5369 34.2257 74.4135 34.0754 74.3136C33.9899 74.2577 33.9015 74.2137 33.8101 74.1784C33.8096 74.1782 33.8091 74.1781 33.8083 74.1779C33.7774 73.7401 33.415 73.3934 32.9679 73.3934C32.8672 73.3934 32.7721 73.4139 32.6827 73.446C32.609 73.2073 32.3886 73.0327 32.1247 73.0327C32.1031 73.0327 32.0827 73.0368 32.0616 73.039C31.9592 72.9115 31.8037 72.8282 31.627 72.8282C31.4695 72.8282 31.3278 72.8936 31.2263 72.9981C31.0998 72.8037 30.8814 72.6744 30.6315 72.6744C30.3684 72.6744 30.1412 72.8189 30.0188 73.031C29.9547 72.825 29.7643 72.6744 29.5366 72.6744C29.2636 72.6744 29.0428 72.8897 29.0315 73.159C29.0303 73.16 29.029 73.1612 29.0275 73.1622C29.018 72.8914 28.7961 72.6744 28.5222 72.6744C28.4293 72.6744 28.3431 72.7011 28.2682 72.7447C28.1866 72.7014 28.0952 72.6744 27.9965 72.6744C27.7854 72.6744 27.6024 72.7881 27.5007 72.956L27.5 72.9558C27.4705 72.9499 27.4439 72.9499 27.4145 72.9499C26.9605 72.9499 26.577 73.2555 26.4591 73.6701C26.4591 73.6705 26.4588 73.6713 26.4588 73.6713C26.4578 73.6713 26.4566 73.671 26.4556 73.671C26.2293 73.671 26.0375 73.8123 25.9603 74.0104C25.7291 74.1079 25.5525 74.3033 25.4734 74.5427C25.4606 74.5418 25.4481 74.5388 25.4351 74.5388C25.1965 74.5388 24.9983 74.7098 24.9558 74.9353C24.9506 74.935 24.9457 74.9338 24.9405 74.9338C24.673 74.9338 24.4502 75.1177 24.388 75.3653C24.3875 75.3655 24.3868 75.3655 24.3863 75.3657C24.2654 75.4216 24.1534 75.5038 24.062 75.6008C24.0615 75.6015 24.0608 75.6023 24.0603 75.603C23.9716 75.5526 23.8704 75.5215 23.7611 75.5215C23.4252 75.5215 23.1528 75.7928 23.1528 76.1278C23.1528 76.1444 23.1565 76.1603 23.1577 76.1767L23.1567 76.177C22.912 76.2593 22.6939 76.4003 22.5167 76.5825C22.516 76.5832 22.5153 76.5844 22.5145 76.5852C22.4133 76.5034 22.2858 76.4522 22.1453 76.4522C21.8195 76.4522 21.5554 76.7154 21.5554 77.0401C21.5554 77.0484 21.5576 77.0563 21.5579 77.0649C21.5571 77.0649 21.5562 77.0646 21.5554 77.0646C20.4585 77.0646 19.5296 77.7877 19.2289 78.7841C19.2284 78.7858 19.2282 78.7877 19.2277 78.7897C18.7056 78.8406 18.2961 79.262 18.2683 79.789C17.5453 80.2052 17.0515 80.9692 17.0149 81.8524H43.9148V81.852Z" fill="#DBEEE8"/>
</svg>
