<svg width="165" height="28" viewBox="0 0 165 28" fill="none" xmlns="http://www.w3.org/2000/svg">
<path fill-rule="evenodd" clip-rule="evenodd" d="M4.16283 0H23.5894C25.8885 0 27.7522 1.8804 27.7522 4.2V23.8C27.7522 26.1196 25.8885 28 23.5894 28H4.16283C1.86376 28 0 26.1196 0 23.8V4.2C0 1.8804 1.86376 0 4.16283 0ZM18.1434 4.05957C17.207 4.05957 16.3328 4.32362 15.5853 4.78221C14.8388 5.24079 14.2189 5.89389 13.7939 6.67373C14.1017 7.01614 14.3689 7.39549 14.5905 7.80478C14.8112 8.21405 14.9845 8.6533 15.1052 9.11537C16.357 8.98247 17.4726 8.37603 18.2744 7.47383C19.0761 6.57251 19.565 5.37457 19.565 4.05957H18.1434ZM9.60817 5.51189H8.18652C8.18652 6.91492 8.74345 8.1859 9.64439 9.1057C10.5453 10.0255 11.7903 10.5941 13.1645 10.5941V13.7743H10.5867C10.5125 13.7743 10.4461 13.8042 10.3979 13.8535C10.3496 13.9028 10.3194 13.9714 10.3194 14.0462V15.0621C10.3194 15.1368 10.3496 15.2046 10.3979 15.2539C10.4461 15.3031 10.5125 15.3339 10.5867 15.3339H12.4816C12.7851 15.3339 13.0532 15.3902 13.2808 15.4959C13.5084 15.6015 13.6955 15.7565 13.8369 15.9519H10.5867C10.5125 15.9519 10.4461 15.9827 10.3979 16.032C10.3496 16.0813 10.3194 16.149 10.3194 16.2248V17.1322C10.3194 17.207 10.3496 17.2757 10.3979 17.325C10.4461 17.3743 10.5125 17.4041 10.5867 17.4041H14.1145C14.0455 17.8135 13.8628 18.1461 13.5808 18.3768C13.2989 18.6066 12.9179 18.735 12.4532 18.735H10.5867C10.5125 18.735 10.4461 18.7649 10.3979 18.8142C10.3496 18.8635 10.3194 18.9322 10.3194 19.007V20.2103C10.3194 20.2481 10.3272 20.285 10.3418 20.3193C10.3565 20.3536 10.378 20.3846 10.4056 20.4101L14.074 23.8674C14.0981 23.8903 14.1265 23.9088 14.1576 23.9203C14.1887 23.9326 14.2215 23.9396 14.255 23.9396H16.0896C16.2112 23.9396 16.3008 23.863 16.338 23.7661C16.375 23.6694 16.3595 23.5505 16.2707 23.467L12.917 20.307C13.7671 20.2797 14.4955 19.9769 15.0318 19.47C15.568 18.9622 15.9112 18.25 15.9914 17.4041H17.1647C17.2388 17.4041 17.3053 17.3743 17.3536 17.325C17.4019 17.2757 17.432 17.207 17.432 17.1322V16.2248C17.432 16.149 17.4019 16.0813 17.3536 16.032C17.3053 15.9827 17.2388 15.9519 17.1647 15.9519H15.8604C15.8215 15.8216 15.7759 15.6949 15.7233 15.5743C15.6698 15.4528 15.6103 15.3366 15.544 15.2266H17.1647C17.2388 15.2266 17.3053 15.1958 17.3536 15.1465C17.4019 15.0972 17.432 15.0294 17.432 14.9537V14.0462C17.432 13.9714 17.4019 13.9028 17.3536 13.8535C17.3053 13.8042 17.2388 13.7743 17.1647 13.7743H14.5871V10.5941C14.5871 9.19109 14.0301 7.9201 13.1292 7.0003C12.2282 6.08048 10.9833 5.51189 9.60817 5.51189Z" fill="#30AB84"/>
<path d="M40.5793 20.6446C39.632 20.6446 38.783 20.4894 38.0325 20.1791C37.2819 19.8687 36.6791 19.4095 36.2238 18.8012C35.7809 18.1929 35.5471 17.4605 35.5225 16.604H38.8814C38.9307 17.0881 39.0968 17.4605 39.3797 17.7212C39.6626 17.9694 40.0317 18.0936 40.487 18.0936C40.9545 18.0936 41.3236 17.9881 41.5943 17.7771C41.865 17.5536 42.0003 17.2496 42.0003 16.8647C42.0003 16.542 41.8896 16.275 41.6681 16.064C41.459 15.8531 41.1944 15.6792 40.8746 15.5427C40.5669 15.4062 40.124 15.2509 39.5458 15.0772C38.7092 14.8165 38.0264 14.5558 37.4973 14.2951C36.9682 14.0345 36.513 13.6496 36.1316 13.1407C35.7501 12.6318 35.5595 11.9676 35.5595 11.1484C35.5595 9.93187 35.9963 8.98225 36.8698 8.29951C37.7433 7.60437 38.8814 7.25679 40.284 7.25679C41.7112 7.25679 42.8616 7.60437 43.7351 8.29951C44.6086 8.98225 45.0762 9.93807 45.1377 11.167H41.7235C41.6989 10.7449 41.5451 10.416 41.2621 10.1801C40.9792 9.93187 40.6162 9.80773 40.1733 9.80773C39.7918 9.80773 39.4843 9.91325 39.2505 10.1243C39.0167 10.3229 38.8999 10.6146 38.8999 10.9994C38.8999 11.4215 39.0968 11.7504 39.4904 11.9863C39.8841 12.2221 40.4993 12.4766 41.3359 12.7497C42.1725 13.0352 42.8493 13.3083 43.366 13.569C43.8951 13.8296 44.3503 14.2082 44.7317 14.7048C45.1132 15.2014 45.3038 15.8406 45.3038 16.6226C45.3038 17.3674 45.1132 18.0439 44.7317 18.6522C44.3626 19.2605 43.8213 19.7446 43.1076 20.1046C42.394 20.4645 41.5513 20.6446 40.5793 20.6446ZM50.4018 11.5952C50.7094 11.1111 51.1339 10.7201 51.6752 10.4222C52.2166 10.1243 52.8502 9.97531 53.5761 9.97531C54.425 9.97531 55.194 10.1925 55.883 10.627C56.572 11.0615 57.1134 11.6821 57.507 12.489C57.913 13.2959 58.116 14.2331 58.116 15.3006C58.116 16.3681 57.913 17.3116 57.507 18.1309C57.1134 18.9377 56.572 19.5646 55.883 20.0115C55.194 20.4459 54.425 20.6632 53.5761 20.6632C52.8626 20.6632 52.2288 20.5142 51.6752 20.2163C51.1339 19.9184 50.7094 19.5335 50.4018 19.0619V25.4671H47.2459V10.1243H50.4018V11.5952ZM54.9048 15.3006C54.9048 14.5061 54.6834 13.8855 54.2404 13.4386C53.8099 12.9793 53.2747 12.7497 52.6348 12.7497C52.0074 12.7497 51.4722 12.9793 51.0292 13.4386C50.5987 13.8979 50.3833 14.5247 50.3833 15.3192C50.3833 16.1137 50.5987 16.7405 51.0292 17.1999C51.4722 17.6592 52.0074 17.8888 52.6348 17.8888C53.2623 17.8888 53.7975 17.6592 54.2404 17.1999C54.6834 16.7282 54.9048 16.0951 54.9048 15.3006ZM62.9276 11.8559C63.2967 11.2849 63.7581 10.838 64.3117 10.5153C64.8654 10.1801 65.4805 10.0125 66.1573 10.0125V13.3828H65.2899C64.5024 13.3828 63.9118 13.5565 63.5182 13.9041C63.1244 14.2393 62.9276 14.8351 62.9276 15.6916V20.5142H59.7717V10.1243H62.9276V11.8559ZM69.2527 9.04431C68.6991 9.04431 68.2439 8.88293 67.8871 8.56019C67.5426 8.22503 67.3703 7.81539 67.3703 7.33127C67.3703 6.83473 67.5426 6.42509 67.8871 6.10235C68.2439 5.76719 68.6991 5.59961 69.2527 5.59961C69.7942 5.59961 70.2371 5.76719 70.5815 6.10235C70.9384 6.42509 71.1167 6.83473 71.1167 7.33127C71.1167 7.81539 70.9384 8.22503 70.5815 8.56019C70.2371 8.88293 69.7942 9.04431 69.2527 9.04431ZM70.8214 10.1243V20.5142H67.6656V10.1243H70.8214ZM79.3833 10.0125C80.589 10.0125 81.5486 10.4098 82.2623 11.2042C82.9881 11.9863 83.3511 13.0662 83.3511 14.4441V20.5142H80.2138V14.8724C80.2138 14.1773 80.0353 13.6372 79.6785 13.2524C79.3218 12.8676 78.842 12.6752 78.239 12.6752C77.6361 12.6752 77.1563 12.8676 76.7995 13.2524C76.4428 13.6372 76.2643 14.1773 76.2643 14.8724V20.5142H73.1085V10.1243H76.2643V11.5021C76.5842 11.0428 77.0149 10.6829 77.5562 10.4222C78.0975 10.1491 78.7065 10.0125 79.3833 10.0125ZM89.4566 9.97531C90.1825 9.97531 90.8162 10.1243 91.3575 10.4222C91.9112 10.7201 92.3356 11.1111 92.6309 11.5952V10.1243H95.7868V20.4956C95.7868 21.4514 95.5961 22.3142 95.2147 23.0838C94.8456 23.8658 94.2734 24.4864 93.4983 24.9458C92.7356 25.4051 91.782 25.6347 90.6378 25.6347C89.1121 25.6347 87.8756 25.2685 86.9283 24.5361C85.9809 23.8161 85.4395 22.8356 85.3042 21.5942H88.4231C88.5215 21.9914 88.7553 22.3017 89.1244 22.5252C89.4935 22.7611 89.9488 22.879 90.4901 22.879C91.1422 22.879 91.6589 22.6866 92.0404 22.3017C92.434 21.9293 92.6309 21.3273 92.6309 20.4956V19.0246C92.3233 19.5087 91.8988 19.9059 91.3575 20.2163C90.8162 20.5142 90.1825 20.6632 89.4566 20.6632C88.6077 20.6632 87.8387 20.4459 87.1497 20.0115C86.4608 19.5646 85.9132 18.9377 85.5072 18.1309C85.1135 17.3116 84.9167 16.3681 84.9167 15.3006C84.9167 14.2331 85.1135 13.2959 85.5072 12.489C85.9132 11.6821 86.4608 11.0615 87.1497 10.627C87.8387 10.1925 88.6077 9.97531 89.4566 9.97531ZM92.6309 15.3192C92.6309 14.5247 92.4095 13.8979 91.9665 13.4386C91.536 12.9793 91.0069 12.7497 90.3794 12.7497C89.7519 12.7497 89.2167 12.9793 88.7738 13.4386C88.3432 13.8855 88.1278 14.5061 88.1278 15.3006C88.1278 16.0951 88.3432 16.7282 88.7738 17.1999C89.2167 17.6592 89.7519 17.8888 90.3794 17.8888C91.0069 17.8888 91.536 17.6592 91.9665 17.1999C92.4095 16.7405 92.6309 16.1137 92.6309 15.3192ZM116.653 7.44299V20.5142H113.497V12.6752L110.6 20.5142H108.053L105.137 12.6566V20.5142H101.981V7.44299H105.709L109.345 16.4923L112.944 7.44299H116.653ZM123.61 20.6632C122.601 20.6632 121.691 20.4459 120.879 20.0115C120.079 19.5771 119.445 18.9563 118.978 18.1495C118.523 17.3427 118.295 16.3992 118.295 15.3192C118.295 14.2517 118.529 13.3145 118.996 12.5076C119.464 11.6883 120.104 11.0615 120.916 10.627C121.728 10.1925 122.638 9.97531 123.647 9.97531C124.656 9.97531 125.566 10.1925 126.378 10.627C127.19 11.0615 127.83 11.6883 128.298 12.5076C128.765 13.3145 128.999 14.2517 128.999 15.3192C128.999 16.3867 128.759 17.3302 128.279 18.1495C127.812 18.9563 127.166 19.5771 126.341 20.0115C125.529 20.4459 124.619 20.6632 123.61 20.6632ZM123.61 17.9074C124.213 17.9074 124.723 17.684 125.142 17.2371C125.572 16.7902 125.788 16.151 125.788 15.3192C125.788 14.4875 125.579 13.8483 125.16 13.4014C124.754 12.9545 124.25 12.7311 123.647 12.7311C123.032 12.7311 122.521 12.9545 122.115 13.4014C121.709 13.8358 121.506 14.4752 121.506 15.3192C121.506 16.151 121.703 16.7902 122.097 17.2371C122.503 17.684 123.007 17.9074 123.61 17.9074ZM136.948 10.0125C138.154 10.0125 139.114 10.4098 139.827 11.2042C140.553 11.9863 140.915 13.0662 140.915 14.4441V20.5142H137.779V14.8724C137.779 14.1773 137.6 13.6372 137.243 13.2524C136.886 12.8676 136.407 12.6752 135.804 12.6752C135.201 12.6752 134.721 12.8676 134.364 13.2524C134.007 13.6372 133.829 14.1773 133.829 14.8724V20.5142H130.673V10.1243H133.829V11.5021C134.149 11.0428 134.58 10.6829 135.121 10.4222C135.662 10.1491 136.271 10.0125 136.948 10.0125ZM152.817 15.1517C152.817 15.4496 152.797 15.76 152.761 16.0827H145.619C145.668 16.7282 145.87 17.2246 146.228 17.5723C146.598 17.9074 147.046 18.075 147.574 18.075C148.363 18.075 148.911 17.7398 149.217 17.0695H152.577C152.405 17.7523 152.091 18.3668 151.635 18.9129C151.192 19.459 150.633 19.8873 149.956 20.1977C149.28 20.5081 148.522 20.6632 147.685 20.6632C146.677 20.6632 145.779 20.4459 144.991 20.0115C144.204 19.5771 143.589 18.9563 143.145 18.1495C142.702 17.3427 142.482 16.3992 142.482 15.3192C142.482 14.2393 142.697 13.2959 143.127 12.489C143.57 11.6821 144.186 11.0615 144.973 10.627C145.761 10.1925 146.664 9.97531 147.685 9.97531C148.682 9.97531 149.568 10.1863 150.343 10.6084C151.118 11.0304 151.722 11.6325 152.152 12.4145C152.595 13.1966 152.817 14.1089 152.817 15.1517ZM149.586 14.3138C149.586 13.7676 149.402 13.3331 149.033 13.0104C148.664 12.6876 148.203 12.5262 147.649 12.5262C147.119 12.5262 146.671 12.6814 146.302 12.9917C145.945 13.3021 145.723 13.7427 145.637 14.3138H149.586ZM165 10.1243L158.541 25.4485H155.145L157.508 20.1604L153.319 10.1243H156.844L159.225 16.6226L161.586 10.1243H165Z" fill="#272B2A"/>
</svg>
