<svg width="34" height="26" viewBox="0 0 34 26" fill="none" xmlns="http://www.w3.org/2000/svg">
<path d="M23.8123 3.90975C22.285 4.13649 21.2915 5.87332 21.3274 7.11895C22.301 6.52686 23.3974 6.08611 24.5941 5.81896C24.5948 5.82019 24.5953 5.82141 24.596 5.82263C23.2714 6.32118 22.1054 7.02614 21.1416 7.91157C20.479 8.52006 19.9142 9.21474 19.4548 9.98239C18.5766 6.40737 16.8038 3.00473 14.2193 0C14.1159 0.0822745 14.1616 0.0457847 14.0581 0.128059C15.7277 2.39771 16.9352 4.82236 17.6789 7.31459C16.6512 6.75311 15.5889 6.27416 14.5006 5.88091C11.4675 4.78539 8.23913 4.3483 5.03384 4.60345C8.09148 4.09634 11.2253 4.22905 14.238 4.98666C13.6776 2.694 10.7276 -0.0565669 7.87701 0.573714C5.24315 1.27648 2.40809 2.98636 0 3.97856C1.95949 5.58217 4.19683 7.99826 6.6285 9.40182C9.38814 10.8323 13.156 8.87071 14.1053 6.7421C15.5196 7.36528 16.8659 8.1366 18.1191 9.04799C18.7603 12.099 18.7203 15.2203 17.9923 18.2578H19.8786C20.2022 15.9534 20.1525 13.6505 19.7543 11.4026C20.1626 10.1736 20.8249 9.06733 21.7133 8.12558C22.5935 9.07541 24.9761 9.45789 26.0941 8.20051C27.0302 7.05112 27.7318 5.39338 28.4752 4.1884C27.0967 4.10588 25.335 3.75352 23.8123 3.90975ZM4.89061 4.62623C4.89085 4.62892 4.89085 4.63161 4.8911 4.63431C4.89085 4.63161 4.89037 4.62892 4.88987 4.62623H4.89061Z" fill="#30AB84"/>
<path d="M33.3963 25.6736C33.2675 24.3861 32.2053 23.3756 30.8941 23.3168C30.8936 23.3158 30.8934 23.3148 30.8931 23.3136C30.5452 22.4495 29.696 21.8412 28.7052 21.8412C28.5076 21.8412 28.319 21.8647 28.1362 21.9088C28.1391 21.8853 28.1391 21.8647 28.1391 21.8412C28.1391 20.9742 27.4343 20.2748 26.5676 20.2748C26.3524 20.2748 26.146 20.316 25.96 20.3953C25.9924 20.2925 26.0072 20.1808 26.0072 20.0692C26.0072 19.4462 25.5149 18.9347 24.8955 18.9053H24.8953C24.8157 18.6235 24.5587 18.4156 24.2504 18.4156C24.1347 18.4156 24.0276 18.4474 23.9322 18.4986C23.9317 18.4979 23.9315 18.4974 23.931 18.4966C23.8337 18.3585 23.7069 18.2351 23.5566 18.1352C23.4711 18.0794 23.3827 18.0353 23.2913 18.0001C23.2908 17.9998 23.2903 17.9998 23.2896 17.9996C23.2586 17.5617 22.8962 17.215 22.4491 17.215C22.3486 17.215 22.2533 17.2356 22.1639 17.2677C22.0902 17.0289 21.8698 16.8543 21.606 16.8543C21.5843 16.8543 21.5639 16.8585 21.5428 16.8607C21.4404 16.7331 21.2849 16.6499 21.1082 16.6499C20.9507 16.6499 20.8092 16.7152 20.7075 16.8198C20.581 16.6254 20.3624 16.4961 20.1128 16.4961C19.8496 16.4961 19.6224 16.6406 19.5 16.8529C19.4359 16.6469 19.2455 16.4961 19.0178 16.4961C18.7449 16.4961 18.524 16.7113 18.5127 16.9807C18.5112 16.9817 18.51 16.9829 18.5088 16.9839C18.4992 16.713 18.2773 16.4961 18.0034 16.4961C17.9103 16.4961 17.8243 16.5228 17.7494 16.5664C17.6681 16.523 17.5764 16.4961 17.4777 16.4961C17.2666 16.4961 17.0836 16.6097 16.9819 16.7777H16.9812C16.9517 16.7718 16.9252 16.7718 16.8957 16.7718C16.4417 16.7718 16.0582 17.0774 15.9402 17.492C15.9402 17.4924 15.94 17.4927 15.94 17.4932C15.939 17.4932 15.9378 17.4929 15.9368 17.4929C15.7105 17.4929 15.5187 17.6342 15.4415 17.8326C15.2104 17.93 15.0337 18.1254 14.9546 18.3649C14.9418 18.3639 14.9293 18.361 14.9163 18.361C14.6777 18.361 14.4797 18.5319 14.437 18.7574C14.4318 18.7572 14.4269 18.7559 14.4217 18.7559C14.1542 18.7559 13.9314 18.9401 13.8692 19.1874C13.8687 19.1876 13.868 19.1876 13.8675 19.1879C13.7466 19.2437 13.6346 19.326 13.5432 19.423C13.5425 19.4237 13.542 19.4244 13.5415 19.4252C13.4528 19.3747 13.3516 19.3436 13.2423 19.3436C12.9064 19.3436 12.6342 19.6149 12.6342 19.9497C12.6342 19.9666 12.6379 19.9822 12.6391 19.9986L12.6382 19.9989C12.3935 20.0812 12.1753 20.2222 11.9982 20.4044C11.9974 20.4051 11.997 20.4063 11.996 20.4071C11.8948 20.3253 11.7672 20.2741 11.6265 20.2741C11.3007 20.2741 11.0366 20.5373 11.0366 20.8618C11.0366 20.8703 11.0388 20.8782 11.0391 20.8865C11.0383 20.8865 11.0374 20.8863 11.0366 20.8863C9.93969 20.8863 9.0108 21.6094 8.7101 22.6057C8.7096 22.6074 8.70936 22.6094 8.70887 22.6113C8.18682 22.6623 7.77728 23.0837 7.74952 23.6106C7.0265 24.0269 6.5327 24.7909 6.49609 25.6741H33.3963V25.6736Z" fill="#272B2A"/>
</svg>
