<svg width="48" height="61" viewBox="0 0 48 61" fill="none" xmlns="http://www.w3.org/2000/svg">
<path d="M37.1644 29.7814C33.6353 30.3052 31.3397 34.318 31.4228 37.1961C33.6722 35.8281 36.2058 34.8097 38.9703 34.1926C38.9716 34.1948 38.9728 34.1973 38.9743 34.1995C35.9503 35.3374 33.2882 36.9452 31.0776 38.9565C30.7258 39.2765 30.3838 39.6049 30.0554 39.945C30.0861 33.6517 30.9513 27.3661 32.6278 21.3556C32.6573 21.2503 32.6823 21.1463 32.7052 21.0429C33.88 18.4633 35.5965 16.1777 37.7781 14.2913C39.0637 15.4803 42.3054 15.661 43.7489 13.802C44.9606 12.0865 45.7207 9.74316 46.5479 8.03939C44.5977 8.11824 42.1312 7.84301 40.1186 8.18925C38.0331 8.64176 36.8978 11.3132 37.1614 13.0537C38.7962 12.0973 40.578 11.3338 42.483 10.7892C42.4852 10.7934 42.4874 10.7975 42.4898 10.8017C40.2758 11.6484 38.2638 12.791 36.4947 14.186C35.1631 15.236 33.9721 16.4307 32.9408 17.7561C34.0004 11.6548 32.4836 5.39412 28.6717 0C28.5582 0.0739491 28.6086 0.0411395 28.4951 0.114844C31.923 5.84516 32.744 12.1813 31.0319 18.0213C30.9685 18.1317 30.9076 18.2598 30.8506 18.4084C30.7749 18.6063 30.7017 18.8054 30.6278 19.0039C29.9667 16.8868 28.9845 14.8902 27.7126 13.0535C26.3555 11.0938 24.6744 9.3144 22.6962 7.772C22.6999 7.76857 22.7034 7.7649 22.707 7.76147C24.4663 8.90205 26.033 10.2265 27.3901 11.7006C28.1991 10.0199 27.8817 6.9637 25.9109 5.86034C23.9811 4.88701 21.3979 4.40267 19.4477 3.71974C19.7548 5.70069 19.7948 8.3085 20.4874 10.4205C21.3701 12.7491 24.7085 13.5692 26.3806 12.7628C28.1892 15.6464 29.2574 18.8538 29.5228 22.2041C28.515 25.3675 27.7217 28.622 27.1486 31.9306C26.5735 31.1321 25.9711 30.348 25.3416 29.5794C23.0824 26.8207 20.4776 24.2609 17.5516 21.9438C20.4781 23.8079 23.1463 25.9113 25.5414 28.2155C26.5268 25.2279 25.9558 20.8103 22.9915 18.9501C19.6949 17.0749 15.2096 15.9992 11.852 14.6309C12.2153 18.1303 12.0552 22.7046 13.0826 26.4672C14.5696 31.0782 21.5133 32.7051 24.0774 30.5716C24.1568 30.5057 24.2339 30.4349 24.3088 30.36C25.2068 31.6678 26.0263 33.0087 26.7673 34.378C26.4371 36.7498 26.2192 39.144 26.1167 41.5476C24.7515 40.8363 23.3465 40.2222 21.913 39.7045C17.3384 38.0524 12.4686 37.3928 7.63403 37.7738C12.246 37.0127 16.9723 37.2145 21.5158 38.3571C20.6689 34.8925 16.211 30.7361 11.9033 31.6884C7.92343 32.7506 3.63891 35.3342 0 36.8337C2.96109 39.2569 6.3418 42.9081 10.0168 45.0291C14.1893 47.192 19.8875 44.223 21.318 41.0043C22.9648 41.7298 24.5501 42.5895 26.0573 43.5758C26.0136 46.3962 26.1275 49.2239 26.4056 52.0374L26.469 52.6775H31.1511L31.0113 51.8503C30.4818 48.7129 30.174 45.5335 30.0812 42.3479C30.7361 41.3488 31.4793 40.4051 32.3097 39.5243C34.3433 41.719 39.8538 42.601 42.4368 39.6955C44.5992 37.0397 46.2204 33.21 47.9381 30.4256C44.7532 30.2346 40.6827 29.4207 37.1644 29.7814ZM17.2342 22.2268C17.2342 22.2268 17.2347 22.2273 17.2352 22.2278C17.2349 22.2273 17.2342 22.2268 17.2342 22.2268ZM7.39131 37.8127C7.39156 37.8169 7.3918 37.8208 7.39205 37.825C7.39156 37.8208 7.39081 37.8169 7.39032 37.813L7.39131 37.8127Z" fill="#30AB84"/>
<path d="M43.1529 60.0928C43.0241 58.8053 41.9616 57.7947 40.6507 57.736C40.6502 57.735 40.65 57.734 40.6497 57.7328C40.3018 56.8687 39.4526 56.2604 38.4618 56.2604C38.2642 56.2604 38.0756 56.2839 37.8925 56.328C37.8955 56.3045 37.8955 56.2839 37.8955 56.2604C37.8955 55.3934 37.1906 54.694 36.3239 54.694C36.1087 54.694 35.9023 54.7352 35.7166 54.8145C35.749 54.7117 35.7638 54.6 35.7638 54.4883C35.7638 53.8654 35.2712 53.3539 34.6521 53.3245C34.5725 53.0427 34.3153 52.8348 34.007 52.8348C33.8913 52.8348 33.7841 52.8666 33.6888 52.9178C33.6883 52.917 33.6881 52.9166 33.6876 52.9158C33.5903 52.7777 33.4635 52.6543 33.3132 52.5544C33.2277 52.4986 33.1393 52.4545 33.0479 52.4192C33.0474 52.419 33.0469 52.419 33.0461 52.4187C33.0152 51.9809 32.6528 51.6342 32.2057 51.6342C32.105 51.6342 32.0099 51.6548 31.9205 51.6868C31.8468 51.4481 31.6264 51.2735 31.3625 51.2735C31.3409 51.2735 31.3205 51.2777 31.2994 51.2799C31.197 51.1523 31.0414 51.0691 30.8648 51.0691C30.7073 51.0691 30.5658 51.1344 30.4641 51.239C30.3376 51.0446 30.1189 50.9153 29.8693 50.9153C29.6062 50.9153 29.379 51.0597 29.2566 51.272C29.1925 51.0661 29.0021 50.9153 28.7744 50.9153C28.5014 50.9153 28.2806 51.1305 28.2693 51.3999C28.268 51.4008 28.2668 51.4021 28.2653 51.403C28.2558 51.1322 28.0339 50.915 27.76 50.915C27.6671 50.915 27.5809 50.9417 27.506 50.9853C27.4246 50.942 27.333 50.915 27.2343 50.915C27.0232 50.915 26.8402 51.0287 26.7385 51.1966C26.7382 51.1966 26.738 51.1966 26.7378 51.1966C26.7083 51.1908 26.6817 51.1908 26.6523 51.1908C26.1983 51.1908 25.8148 51.4963 25.6968 51.9109C25.6968 51.9114 25.6966 51.9116 25.6966 51.9121C25.6954 51.9121 25.6944 51.9119 25.6934 51.9119C25.4671 51.9119 25.2753 52.0532 25.1981 52.2515C24.9669 52.349 24.7903 52.5444 24.7112 52.7838C24.6984 52.7829 24.6859 52.7799 24.6729 52.7799C24.4343 52.7799 24.2361 52.9508 24.1936 53.1764C24.1884 53.1761 24.1835 53.1749 24.1783 53.1749C23.9108 53.1749 23.688 53.359 23.6258 53.6063C23.6253 53.6066 23.6246 53.6066 23.6241 53.6068C23.5032 53.6627 23.3912 53.7449 23.2998 53.8419C23.2991 53.8426 23.2986 53.8434 23.2981 53.8441C23.2094 53.7937 23.1082 53.7626 22.9989 53.7626C22.663 53.7626 22.3906 54.0339 22.3906 54.3688C22.3906 54.3855 22.3943 54.4014 22.3955 54.4178C22.3952 54.4181 22.3948 54.4181 22.3945 54.4181C22.1498 54.5003 21.9317 54.6414 21.7548 54.8236C21.754 54.8243 21.7535 54.8255 21.7526 54.8263C21.6511 54.7445 21.5238 54.6933 21.3831 54.6933C21.0573 54.6933 20.7932 54.9565 20.7932 55.281C20.7932 55.2895 20.7954 55.2974 20.7957 55.3057C20.7947 55.3057 20.7939 55.3055 20.7932 55.3055C19.6963 55.3055 18.7674 56.0285 18.4667 57.0247C18.4662 57.0264 18.466 57.0283 18.4655 57.0303C17.9434 57.0812 17.5339 57.5026 17.5061 58.0296C16.7831 58.4458 16.2893 59.2098 16.2527 60.0931H43.1529V60.0928Z" fill="#272B2A"/>
</svg>
