<svg width="28" height="19" viewBox="0 0 28 19" fill="none" xmlns="http://www.w3.org/2000/svg">
<path d="M9.9561 0.606384C9.89468 0.655112 9.92195 0.633564 9.86053 0.682292C12.2789 3.9696 13.0648 7.80418 12.1942 11.4365H13.313C13.8544 7.58062 12.6438 3.7311 9.9561 0.606384Z" fill="#DBEEE8"/>
<path d="M27.4501 18.8518C27.3211 17.5643 26.2591 16.5538 24.9479 16.495C24.9474 16.494 24.9472 16.4931 24.947 16.4918C24.5991 15.6277 23.7498 15.0195 22.759 15.0195C22.5615 15.0195 22.3728 15.043 22.19 15.087C22.193 15.0635 22.193 15.043 22.193 15.0195C22.193 14.1524 21.4881 13.4531 20.6214 13.4531C20.4062 13.4531 20.1998 13.4942 20.0138 13.5735C20.0463 13.4707 20.061 13.359 20.061 13.2474C20.061 12.6244 19.5684 12.1129 18.9493 12.0835H18.9491C18.8695 11.8017 18.6125 11.5938 18.3042 11.5938C18.1885 11.5938 18.0814 11.6256 17.9863 11.6768C17.9858 11.6761 17.9856 11.6756 17.9851 11.6749C17.8878 11.5368 17.761 11.4133 17.6107 11.3134C17.5252 11.2576 17.4367 11.2135 17.3453 11.1783C17.3449 11.178 17.3444 11.178 17.3436 11.1778C17.3127 10.74 16.9503 10.3932 16.5032 10.3932C16.4025 10.3932 16.3074 10.4138 16.218 10.4459C16.1443 10.2071 15.9239 10.0325 15.66 10.0325C15.6384 10.0325 15.618 10.0367 15.5969 10.0389C15.4944 9.91134 15.3389 9.82809 15.1623 9.82809C15.0048 9.82809 14.8631 9.89347 14.7616 9.99803C14.6351 9.8036 14.4164 9.67432 14.1668 9.67432C13.9037 9.67432 13.6765 9.81878 13.5541 10.0308C13.49 9.82491 13.2996 9.67432 13.0719 9.67432C12.7989 9.67432 12.5781 9.88955 12.5668 10.1589C12.5653 10.1599 12.5643 10.1611 12.5628 10.1621C12.5533 9.89126 12.3314 9.67432 12.0572 9.67432C11.9641 9.67432 11.8781 9.701 11.8032 9.74459C11.7219 9.70125 11.6303 9.67432 11.5315 9.67432C11.3202 9.67432 11.1374 9.78793 11.0357 9.95591L11.035 9.95566C11.0055 9.94979 10.979 9.94979 10.9495 9.94979C10.4955 9.94979 10.112 10.2554 9.99408 10.6699C9.99383 10.6704 9.99383 10.6712 9.99383 10.6712C9.99261 10.6712 9.99162 10.6709 9.99064 10.6709C9.76438 10.6709 9.5725 10.8122 9.49536 11.0103C9.26419 11.1078 9.08755 11.3031 9.00844 11.5426C8.99567 11.5416 8.98314 11.5387 8.97012 11.5387C8.73157 11.5387 8.53356 11.7096 8.49081 11.9352C8.48565 11.9349 8.48074 11.9337 8.47558 11.9337C8.20804 11.9337 7.98521 12.1176 7.92306 12.3651C7.92257 12.3654 7.92183 12.3654 7.92134 12.3656C7.80047 12.4215 7.68844 12.5037 7.59705 12.6007C7.59656 12.6014 7.59582 12.6022 7.59533 12.6029C7.50664 12.5525 7.40543 12.5214 7.2961 12.5214C6.96027 12.5214 6.68782 12.7927 6.68782 13.1276C6.68782 13.1443 6.6915 13.1602 6.69273 13.1766L6.69175 13.1769C6.44706 13.2591 6.2289 13.4002 6.05201 13.5824C6.05128 13.5831 6.05054 13.5843 6.0498 13.585C5.94859 13.5033 5.82108 13.4521 5.68031 13.4521C5.35455 13.4521 5.0907 13.7153 5.0907 14.04C5.0907 14.0483 5.09291 14.0562 5.09315 14.0647C5.09217 14.0647 5.09143 14.0645 5.0907 14.0645C3.99377 14.0645 3.06488 14.7876 2.76418 15.7839C2.76368 15.7856 2.76344 15.7876 2.76295 15.7896C2.24089 15.8405 1.83136 16.2619 1.8036 16.7889C1.08058 17.2051 0.586778 17.9691 0.549927 18.8523H27.4501V18.8518Z" fill="#DBEEE8"/>
</svg>
