<svg width="50" height="82" viewBox="0 0 50 82" fill="none" xmlns="http://www.w3.org/2000/svg">
<path d="M38.4738 50.7342C34.8204 51.2766 32.444 55.4305 32.53 58.4102C34.8588 56.9939 37.4816 55.9398 40.3434 55.3007C40.3446 55.3032 40.3461 55.3054 40.3473 55.3078C37.274 56.4643 34.5605 58.0882 32.2969 60.1174C31.8881 60.484 31.4933 60.8633 31.1142 61.2558C31.1459 54.7529 32.0389 48.2579 33.7682 42.0462C34.8968 38.9109 36.6603 36.0475 38.9902 33.5793C40.7139 34.8819 44.7196 34.7027 46.2594 32.2406C47.5315 29.9851 48.1715 27.0157 48.9734 24.8224C46.5906 25.1613 43.5295 25.13 41.1038 25.8048C38.6013 26.619 37.5425 30.0378 38.0835 32.1407C39.9695 30.764 42.0604 29.6061 44.3297 28.7013C44.3329 28.7062 44.3363 28.7109 44.3395 28.7158C41.729 30.0295 39.3983 31.6769 37.402 33.6079C36.5654 34.4172 35.7889 35.2767 35.074 36.1819C35.5518 32.2183 35.5525 28.2429 35.0931 24.3359C35.8589 20.4298 37.6081 16.8349 40.2248 13.7854C41.9103 14.938 45.6831 14.5898 47.0257 12.1972C48.1248 10.0115 48.5953 7.18016 49.2537 5.07408C47.0198 5.50039 44.1292 5.60764 41.8698 6.35301C39.5445 7.2333 38.6986 10.5076 39.304 12.4683C41.0222 11.0848 42.9439 9.89816 45.0451 8.94294C45.0483 8.94735 45.0517 8.95176 45.0549 8.95592C42.6498 10.3127 40.524 11.9717 38.7266 13.8836C36.9629 15.7597 35.5157 17.8793 34.4323 20.1967C33.9232 17.6986 33.2199 15.2431 32.3332 12.8502C31.2769 9.99904 29.9573 7.23819 28.3801 4.60566C29.1584 5.52047 29.8603 6.47128 30.4858 7.45098C31.3962 6.33122 31.7218 4.00157 30.4561 2.81251C29.1891 1.72189 27.3397 0.876615 26.0032 0C25.8622 1.5451 25.4031 3.51136 25.5269 5.22663C25.761 7.20979 28.2809 8.46766 29.6635 8.04649C31.6881 12.897 32.8877 17.9694 33.2732 23.0689C32.2826 21.4447 31.0852 19.9557 29.705 18.6207C27.9583 16.9309 25.9236 15.4857 23.6394 14.3363C23.6423 14.3322 23.645 14.3278 23.648 14.3236C25.6335 15.1152 27.4628 16.1282 29.113 17.3327C29.5864 15.4928 28.6599 12.5016 26.4705 11.7895C24.3479 11.1991 21.6698 11.2265 19.585 10.93C20.2867 12.8488 20.8466 15.4468 21.9595 17.4202C23.3055 19.5725 26.8054 19.7307 28.3155 18.594C30.7548 21.1781 32.4834 24.256 33.4009 27.6452C33.3184 31.8532 32.6846 36.0397 31.5056 40.0944L31.5144 40.0951C31.2597 40.7959 31.0154 41.5018 30.7816 42.2124C30.0418 40.242 29.0574 38.37 27.8478 36.6232C26.2676 34.341 24.3039 32.2724 22.0005 30.4766C22.0047 30.4724 22.0088 30.4685 22.0128 30.4643C24.0617 31.7927 25.8858 33.3349 27.4665 35.0516C28.4086 33.0944 28.0389 29.5353 25.7438 28.2505C23.4964 27.117 20.4881 26.5531 18.2174 25.7575C18.5751 28.0644 18.6217 31.1012 19.428 33.5606C20.4567 36.2747 24.3504 37.229 26.2958 36.2862C28.0956 39.1556 29.2641 42.3013 29.7588 45.5904C29.0884 48.0074 28.5359 50.4683 28.1045 52.9593C27.509 52.1326 26.8854 51.3209 26.2339 50.5254C23.8951 47.6697 21.1986 45.0198 18.1695 42.6209C21.1991 44.5507 23.9612 46.7282 26.4405 49.1135C27.4608 46.0206 26.8695 41.4475 23.8008 39.5219C20.3879 37.5806 15.7447 36.4672 12.2689 35.0504C12.645 38.6729 12.4792 43.4086 13.543 47.3034C15.0826 52.0771 22.2707 53.7612 24.925 51.5526C25.007 51.4842 25.0871 51.411 25.1648 51.3334C26.0944 52.6875 26.9427 54.0754 27.7097 55.4929C27.368 57.9482 27.1424 60.4269 27.0363 62.9153C25.6229 62.1789 24.1686 61.5433 22.6844 61.0073C17.9489 59.2969 12.9077 58.614 7.90281 59.0084C12.6772 58.2207 17.5698 58.4293 22.2734 59.6123C21.3969 56.0257 16.7817 51.7227 12.3225 52.7088C8.20228 53.8082 3.7669 56.4829 0 58.0354C3.06526 60.544 6.56511 64.3237 10.3696 66.5194C14.6893 68.7585 20.5879 65.6849 22.0688 62.3528C23.7735 63.1038 25.4146 63.9939 26.9749 65.015C26.9294 67.9347 27.0476 70.8618 27.3355 73.7745L27.4011 74.4371H32.248L32.1033 73.5808C31.5552 70.3327 31.2363 67.0417 31.1403 63.7436C31.8183 62.7093 32.5878 61.7323 33.4471 60.8207C35.5525 63.0928 41.2571 64.0056 43.931 60.998C46.1695 58.2486 47.848 54.284 49.6262 51.4017C46.3297 51.2031 42.1157 50.3606 38.4738 50.7342ZM17.8415 42.9132C17.8415 42.9132 17.842 42.914 17.8425 42.9142C17.842 42.914 17.8417 42.9137 17.8415 42.9132Z" fill="#30AB84"/>
<path d="M43.8658 81.8523C43.737 80.5648 42.6745 79.5543 41.3636 79.4955C41.3631 79.4945 41.3628 79.4935 41.3626 79.4923C41.0147 78.6282 40.1654 78.0199 39.1746 78.0199C38.9771 78.0199 38.7884 78.0435 38.6057 78.0875C38.6086 78.064 38.6086 78.0435 38.6086 78.0199C38.6086 77.1529 37.9038 76.4535 37.037 76.4535C36.8218 76.4535 36.6155 76.4947 36.4295 76.574C36.4619 76.4712 36.4767 76.3595 36.4767 76.2479C36.4767 75.6249 35.9843 75.1134 35.365 75.084H35.3647C35.2851 74.8022 35.0282 74.5943 34.7199 74.5943C34.6041 74.5943 34.497 74.6261 34.4019 74.6773C34.4015 74.6766 34.4012 74.6761 34.4007 74.6753C34.3034 74.5372 34.1767 74.4138 34.0263 74.3139C33.9408 74.2581 33.8524 74.214 33.761 74.1788C33.7605 74.1785 33.76 74.1785 33.7593 74.1783C33.7283 73.7405 33.3659 73.3937 32.9188 73.3937C32.8181 73.3937 32.723 73.4143 32.6336 73.4464C32.5599 73.2076 32.3395 73.033 32.0757 73.033C32.0541 73.033 32.0337 73.0372 32.0125 73.0394C31.9101 72.9118 31.7546 72.8286 31.5779 72.8286C31.4205 72.8286 31.2787 72.894 31.1773 72.9985C31.0507 72.8041 30.8323 72.6748 30.5825 72.6748C30.3194 72.6748 30.0921 72.8193 29.9698 73.0313C29.9057 72.8254 29.7153 72.6748 29.4875 72.6748C29.2146 72.6748 28.9937 72.89 28.9824 73.1594C28.9812 73.1604 28.98 73.1616 28.9785 73.1626C28.9689 72.8917 28.7471 72.6748 28.4731 72.6748C28.3803 72.6748 28.294 72.7015 28.2191 72.7451C28.1375 72.7017 28.0462 72.6748 27.9474 72.6748C27.7364 72.6748 27.5533 72.7884 27.4516 72.9564L27.4509 72.9562C27.4214 72.9503 27.3949 72.9503 27.3654 72.9503C26.9114 72.9503 26.5279 73.2559 26.41 73.6704C26.41 73.6709 26.4097 73.6716 26.4097 73.6716C26.4087 73.6716 26.4075 73.6714 26.4065 73.6714C26.1803 73.6714 25.9884 73.8127 25.9113 74.0108C25.6801 74.1082 25.5034 74.3036 25.4243 74.5431C25.4116 74.5421 25.399 74.5392 25.386 74.5392C25.1475 74.5392 24.9492 74.7101 24.9067 74.9356C24.9015 74.9354 24.8966 74.9342 24.8915 74.9342C24.6239 74.9342 24.4011 75.1181 24.3389 75.3656C24.3385 75.3659 24.3377 75.3659 24.3372 75.3661C24.2164 75.4219 24.1043 75.5042 24.0129 75.6012C24.0125 75.6019 24.0117 75.6026 24.0112 75.6034C23.9225 75.5529 23.8213 75.5218 23.712 75.5218C23.3762 75.5218 23.1037 75.7932 23.1037 76.1281C23.1037 76.1448 23.1074 76.1607 23.1086 76.1771L23.1076 76.1773C22.863 76.2596 22.6448 76.4007 22.4677 76.5828C22.4669 76.5836 22.4662 76.5848 22.4654 76.5855C22.3642 76.5037 22.2367 76.4526 22.0962 76.4526C21.7704 76.4526 21.5063 76.7158 21.5063 77.0405C21.5063 77.0488 21.5086 77.0567 21.5088 77.0652C21.5081 77.0652 21.5071 77.065 21.5063 77.065C20.4094 77.065 19.4805 77.7881 19.1798 78.7844C19.1793 78.7861 19.1791 78.7881 19.1786 78.7901C18.6565 78.841 18.247 79.2624 18.2192 79.7893C17.4962 80.2056 17.0024 80.9696 16.9658 81.8528H43.8658V81.8523Z" fill="#272B2A"/>
</svg>
