<svg width="45" height="43" viewBox="0 0 45 43" fill="none" xmlns="http://www.w3.org/2000/svg">
<path d="M36.8163 14.5775C34.4269 14.9321 32.8725 17.6491 32.9288 19.598C34.4519 18.6717 36.1672 17.9821 38.039 17.5644C38.04 17.5663 38.041 17.5681 38.0422 17.57C35.9699 18.3499 34.1461 19.4528 32.6381 20.8377C31.6938 21.7053 30.8742 22.6835 30.192 23.759C30.0659 23.0998 29.922 22.4438 29.7576 21.7917C29.1813 15.8241 29.8355 9.65427 31.7117 4.11984C31.6375 4.06034 31.5636 4.0006 31.4894 3.9411C29.7721 8.22892 28.7816 13.0834 28.6027 18.0867C28.0256 16.5374 27.336 15.0173 26.54 13.5332C25.2191 11.0698 23.6018 8.70738 21.7008 6.48328C23.6711 8.3587 25.406 10.3798 26.9002 12.5138C28.1111 10.3632 28.3413 6.87825 26.3423 5.00062C24.0897 3.0613 20.8014 1.55856 18.4252 0C18.1744 2.74738 17.358 6.24306 17.5784 9.29285C18.024 13.065 23.1203 15.3621 25.4166 14.1064C25.4876 14.0675 25.5578 14.0249 25.6269 13.9783C27.1535 17.5147 28.0576 21.181 28.3335 24.8697C26.5177 23.8258 24.6267 22.9524 22.6844 22.2511C17.9486 20.5407 12.9074 19.8578 7.90256 20.2523C12.677 19.4645 17.5698 19.6732 22.2734 20.8561C21.3969 17.2696 16.7817 12.9666 12.3225 13.9526C8.20228 15.0521 3.7669 17.7267 0 19.2792C3.06526 21.7878 6.56512 25.5675 10.3696 27.763C14.6893 30.002 20.5879 26.9285 22.0688 23.5964C24.3098 24.5837 26.4405 25.8119 28.4224 27.2615C28.4258 29.836 28.1273 32.4098 27.5195 34.9461H30.4706C30.8892 31.9641 30.9074 28.9839 30.5497 26.0526C31.1931 24.2293 32.2013 22.5853 33.5304 21.1756C34.9084 22.6607 38.6377 23.257 40.3859 21.2902C41.8501 19.4922 42.9478 16.8991 44.1108 15.0139C41.9543 14.8843 39.1983 14.3331 36.8163 14.5775ZM7.65124 20.2919C7.65148 20.2961 7.65173 20.3005 7.65197 20.3047C7.65148 20.3005 7.65075 20.2963 7.65026 20.2922L7.65124 20.2919ZM21.4156 6.65469L21.4163 6.65542C21.4158 6.65517 21.4156 6.65469 21.4156 6.65469Z" fill="#DBEEE8"/>
<path d="M43.6597 42.3611C43.5307 41.0736 42.4684 40.0631 41.1575 40.0043C41.157 40.0033 41.1568 40.0021 41.1565 40.0011C40.8087 39.137 39.9594 38.5287 38.9686 38.5287C38.7711 38.5287 38.5824 38.5522 38.3996 38.5963C38.4026 38.5728 38.4026 38.5522 38.4026 38.5287C38.4026 37.6617 37.6977 36.9623 36.831 36.9623C36.6158 36.9623 36.4094 37.0035 36.2234 37.0828C36.2559 36.98 36.2706 36.8683 36.2706 36.7567C36.2706 36.1337 35.778 35.6222 35.1589 35.5928H35.1587C35.0791 35.311 34.8221 35.1031 34.5138 35.1031C34.3981 35.1031 34.2907 35.1349 34.1957 35.1861C34.1952 35.1856 34.1949 35.1849 34.1944 35.1841C34.0971 35.046 33.9704 34.9226 33.82 34.8227C33.7345 34.7669 33.6461 34.7228 33.5547 34.6876C33.5542 34.6873 33.5537 34.6873 33.553 34.6871C33.522 34.2492 33.1597 33.9025 32.7125 33.9025C32.612 33.9025 32.5167 33.9231 32.4273 33.9552C32.3536 33.7164 32.1332 33.5418 31.8694 33.5418C31.8478 33.5418 31.8274 33.546 31.8062 33.5482C31.7038 33.4206 31.5483 33.3374 31.3716 33.3374C31.2142 33.3374 31.0727 33.4027 30.971 33.5073C30.8444 33.3129 30.6258 33.1836 30.3762 33.1836C30.1131 33.1836 29.8858 33.3281 29.7635 33.5404C29.6993 33.3344 29.509 33.1836 29.2812 33.1836C29.0083 33.1836 28.7874 33.3988 28.7761 33.6682C28.7749 33.6692 28.7737 33.6704 28.7722 33.6714C28.7626 33.4005 28.5408 33.1836 28.2668 33.1836C28.1737 33.1836 28.0877 33.2103 28.0128 33.2539C27.9312 33.2105 27.8399 33.1836 27.7411 33.1836C27.5301 33.1836 27.347 33.2972 27.2453 33.4652H27.2446C27.2151 33.4593 27.1886 33.4593 27.1591 33.4593C26.7051 33.4593 26.3216 33.7649 26.2037 34.1795C26.2034 34.1799 26.2034 34.1807 26.2034 34.1807C26.2022 34.1807 26.2012 34.1804 26.2002 34.1804C25.974 34.1804 25.7821 34.3215 25.705 34.5198C25.4738 34.6173 25.2971 34.8127 25.218 35.0522C25.2053 35.0512 25.1927 35.0482 25.1797 35.0482C24.9409 35.0482 24.7432 35.2191 24.7004 35.4447C24.6952 35.4444 24.6903 35.4432 24.6852 35.4432C24.4176 35.4432 24.1948 35.6273 24.1327 35.8747C24.1322 35.8749 24.1314 35.8749 24.1309 35.8751C24.0101 35.931 23.898 36.0132 23.8066 36.1102C23.8059 36.1109 23.8054 36.1117 23.8049 36.1124C23.7162 36.062 23.615 36.0309 23.5057 36.0309C23.1699 36.0309 22.8977 36.3022 22.8977 36.6369C22.8977 36.6536 22.9013 36.6695 22.9026 36.6859L22.9016 36.6861C22.6569 36.7684 22.4387 36.9095 22.2618 37.0916C22.2611 37.0924 22.2604 37.0936 22.2596 37.0943C22.1582 37.0125 22.0309 36.9614 21.8901 36.9614C21.5644 36.9614 21.3005 37.2246 21.3005 37.5493C21.3005 37.5576 21.3027 37.5657 21.303 37.574C21.302 37.574 21.3013 37.5738 21.3005 37.5738C20.2036 37.5738 19.2747 38.2969 18.974 39.293C18.9735 39.2947 18.9733 39.2966 18.9728 39.2986C18.4507 39.3495 18.0412 39.7709 18.0134 40.2979C17.2904 40.7142 16.7966 41.4781 16.76 42.3614H43.6597V42.3611Z" fill="#DBEEE8"/>
</svg>
