<svg width="19" height="19" viewBox="0 0 19 19" fill="none" xmlns="http://www.w3.org/2000/svg">
<path fill-rule="evenodd" clip-rule="evenodd" d="M2.86048 0H16.0428C17.6029 0 18.8676 1.27599 18.8676 2.85V16.15C18.8676 17.724 17.6029 19 16.0428 19H2.86048C1.3004 19 0.0357056 17.724 0.0357056 16.15V2.85C0.0357056 1.27599 1.3004 0 2.86048 0ZM12.3473 2.75471C11.7119 2.75471 11.1187 2.93388 10.6114 3.24507C10.1049 3.55625 9.68425 3.99943 9.39585 4.5286C9.60472 4.76095 9.78603 5.01837 9.9364 5.2961C10.0862 5.57382 10.2038 5.87188 10.2857 6.18543C11.1351 6.09525 11.8921 5.68373 12.4362 5.07153C12.9802 4.45992 13.312 3.64703 13.312 2.75471H12.3473ZM6.55554 3.74021H5.59084C5.59084 4.69227 5.96876 5.55472 6.58011 6.17887C7.19145 6.80302 8.03627 7.18885 8.96876 7.18885V9.34685H7.21954C7.16919 9.34685 7.12413 9.36714 7.09142 9.40059C7.05865 9.43404 7.03816 9.48059 7.03816 9.53135V10.2207C7.03816 10.2714 7.05865 10.3174 7.09142 10.3509C7.12413 10.3842 7.16919 10.4051 7.21954 10.4051H8.50536C8.71131 10.4051 8.89323 10.4433 9.04768 10.5151C9.20212 10.5867 9.32908 10.6919 9.42503 10.8245H7.21954C7.16919 10.8245 7.12413 10.8454 7.09142 10.8789C7.05865 10.9123 7.03816 10.9583 7.03816 11.0097V11.6254C7.03816 11.6762 7.05865 11.7228 7.09142 11.7563C7.12413 11.7897 7.16919 11.8099 7.21954 11.8099H9.6134C9.56658 12.0877 9.44261 12.3134 9.25125 12.47C9.05996 12.6259 8.80142 12.713 8.48609 12.713H7.21954C7.16919 12.713 7.12413 12.7333 7.09142 12.7668C7.05865 12.8002 7.03816 12.8468 7.03816 12.8976V13.7141C7.03816 13.7398 7.04345 13.7648 7.05336 13.7881C7.06333 13.8114 7.07792 13.8324 7.09665 13.8497L9.58592 16.1957C9.60227 16.2113 9.62155 16.2238 9.64265 16.2316C9.66375 16.24 9.68601 16.2447 9.70874 16.2447H10.9536C11.0362 16.2447 11.097 16.1927 11.1222 16.127C11.1473 16.0614 11.1368 15.9807 11.0765 15.924L8.80081 13.7797C9.37767 13.7612 9.87194 13.5558 10.2359 13.2118C10.5997 12.8672 10.8326 12.3839 10.887 11.8099H11.6832C11.7335 11.8099 11.7786 11.7897 11.8114 11.7563C11.8441 11.7228 11.8646 11.6762 11.8646 11.6254V11.0097C11.8646 10.9583 11.8441 10.9123 11.8114 10.8789C11.7786 10.8454 11.7335 10.8245 11.6832 10.8245H10.7981C10.7717 10.7361 10.7408 10.6501 10.7051 10.5683C10.6688 10.4858 10.6284 10.407 10.5834 10.3323H11.6832C11.7335 10.3323 11.7786 10.3114 11.8114 10.278C11.8441 10.2445 11.8646 10.1985 11.8646 10.1472V9.53135C11.8646 9.48059 11.8441 9.43404 11.8114 9.40059C11.7786 9.36714 11.7335 9.34685 11.6832 9.34685H9.9341V7.18885C9.9341 6.23681 9.55613 5.37435 8.94481 4.7502C8.33341 4.12604 7.48866 3.74021 6.55554 3.74021Z" fill="#30AB84"/>
</svg>
