<svg width="88" height="15" viewBox="0 0 88 15" fill="none" xmlns="http://www.w3.org/2000/svg">
<path d="M3.57166 11.0088C2.92885 11.0088 2.35274 10.9035 1.84347 10.693C1.33414 10.4823 0.925096 10.1707 0.616142 9.75797C0.315603 9.34519 0.156952 8.8482 0.140259 8.26701H2.41951C2.45297 8.5955 2.56568 8.84821 2.75765 9.02511C2.94961 9.19353 3.20007 9.27781 3.50903 9.27781C3.82626 9.27781 4.07672 9.20622 4.26041 9.06304C4.4441 8.91138 4.53591 8.70509 4.53591 8.44391C4.53591 8.22494 4.46079 8.04376 4.31049 7.90058C4.1686 7.75747 3.98905 7.63947 3.77204 7.54684C3.56324 7.45422 3.26271 7.34883 2.87036 7.23097C2.30266 7.05406 1.83933 6.87716 1.4803 6.70025C1.12127 6.52342 0.812384 6.26224 0.553577 5.91691C0.294702 5.57159 0.165368 5.12088 0.165368 4.56499C0.165368 3.73949 0.461767 3.09511 1.0545 2.63182C1.64723 2.16012 2.41951 1.92426 3.37128 1.92426C4.33974 1.92426 5.12036 2.16012 5.7131 2.63182C6.30583 3.09511 6.62313 3.7437 6.66486 4.57762H4.34808C4.33139 4.29119 4.22702 4.06801 4.03499 3.90793C3.84302 3.73949 3.5967 3.65525 3.29616 3.65525C3.03729 3.65525 2.82862 3.72686 2.66997 3.87007C2.51132 4.00483 2.43207 4.20277 2.43207 4.46389C2.43207 4.75031 2.56568 4.97349 2.83276 5.13357C3.09992 5.29358 3.51737 5.46627 4.08507 5.65159C4.65276 5.84532 5.11202 6.03064 5.46264 6.20754C5.82167 6.38438 6.13055 6.64129 6.38936 6.97827C6.64824 7.31524 6.77757 7.74899 6.77757 8.27963C6.77757 8.78503 6.64824 9.24408 6.38936 9.65686C6.1389 10.0696 5.77159 10.3981 5.28729 10.6424C4.80306 10.8866 4.23123 11.0088 3.57166 11.0088ZM10.2369 4.86818C10.4457 4.53968 10.7337 4.27436 11.101 4.07222C11.4684 3.87007 11.8983 3.76897 12.3909 3.76897C12.967 3.76897 13.4888 3.91635 13.9563 4.21119C14.4238 4.50603 14.7912 4.92715 15.0583 5.47469C15.3338 6.02223 15.4716 6.65818 15.4716 7.38256C15.4716 8.10693 15.3338 8.74717 15.0583 9.30312C14.7912 9.85059 14.4238 10.276 13.9563 10.5792C13.4888 10.874 12.967 11.0215 12.3909 11.0215C11.9068 11.0215 11.4767 10.9204 11.101 10.7182C10.7337 10.5161 10.4457 10.2549 10.2369 9.93487V14.2813H8.09542V3.87007H10.2369V4.86818ZM13.2925 7.38256C13.2925 6.84343 13.1423 6.42231 12.8417 6.11906C12.5496 5.80739 12.1864 5.65159 11.7522 5.65159C11.3264 5.65159 10.9633 5.80739 10.6627 6.11906C10.3705 6.43073 10.2244 6.85605 10.2244 7.39518C10.2244 7.9343 10.3705 8.35963 10.6627 8.67137C10.9633 8.98304 11.3264 9.13884 11.7522 9.13884C12.178 9.13884 12.5412 8.98304 12.8417 8.67137C13.1423 8.35129 13.2925 7.92168 13.2925 7.38256ZM18.7366 5.04508C18.987 4.65762 19.3001 4.35437 19.6758 4.13539C20.0515 3.90793 20.4689 3.7942 20.9282 3.7942V6.08119H20.3396C19.8052 6.08119 19.4044 6.19906 19.1373 6.43493C18.8701 6.66239 18.7366 7.06668 18.7366 7.64788V10.9204H16.5951V3.87007H18.7366V5.04508ZM23.0286 3.13722C22.653 3.13722 22.3441 3.02771 22.102 2.80871C21.8682 2.58128 21.7513 2.30331 21.7513 1.9748C21.7513 1.63786 21.8682 1.35989 22.102 1.14089C22.3441 0.913459 22.653 0.799744 23.0286 0.799744C23.3961 0.799744 23.6966 0.913459 23.9303 1.14089C24.1725 1.35989 24.2935 1.63786 24.2935 1.9748C24.2935 2.30331 24.1725 2.58128 23.9303 2.80871C23.6966 3.02771 23.3961 3.13722 23.0286 3.13722ZM24.0931 3.87007V10.9204H21.9517V3.87007H24.0931ZM29.9029 3.7942C30.7211 3.7942 31.3723 4.0638 31.8566 4.60286C32.3491 5.13357 32.5954 5.86636 32.5954 6.80136V10.9204H30.4665V7.09199C30.4665 6.62032 30.3454 6.25382 30.1033 5.99271C29.8612 5.73159 29.5356 5.60104 29.1265 5.60104C28.7173 5.60104 28.3918 5.73159 28.1497 5.99271C27.9076 6.25382 27.7865 6.62032 27.7865 7.09199V10.9204H25.645V3.87007H27.7865V4.805C28.0036 4.49334 28.2958 4.24912 28.6631 4.07222C29.0304 3.8869 29.4437 3.7942 29.9029 3.7942ZM36.7384 3.76897C37.231 3.76897 37.661 3.87007 38.0283 4.07222C38.404 4.27436 38.692 4.53968 38.8924 4.86818V3.87007H41.0339V10.9077C41.0339 11.5563 40.9045 12.1418 40.6457 12.664C40.3952 13.1947 40.0069 13.6158 39.481 13.9275C38.9634 14.2392 38.3164 14.395 37.5399 14.395C36.5046 14.395 35.6656 14.1465 35.0228 13.6495C34.3799 13.1609 34.0125 12.4956 33.9207 11.6532H36.0371C36.1039 11.9227 36.2625 12.1333 36.513 12.285C36.7634 12.445 37.0724 12.525 37.4397 12.525C37.8822 12.525 38.2328 12.3945 38.4917 12.1333C38.7588 11.8806 38.8924 11.4721 38.8924 10.9077V9.90956C38.6837 10.2381 38.3956 10.5076 38.0283 10.7182C37.661 10.9204 37.231 11.0215 36.7384 11.0215C36.1624 11.0215 35.6405 10.874 35.173 10.5792C34.7055 10.276 34.334 9.85059 34.0585 9.30312C33.7913 8.74717 33.6578 8.10693 33.6578 7.38256C33.6578 6.65818 33.7913 6.02223 34.0585 5.47469C34.334 4.92715 34.7055 4.50603 35.173 4.21119C35.6405 3.91635 36.1624 3.76897 36.7384 3.76897ZM38.8924 7.39518C38.8924 6.85605 38.7422 6.43073 38.4415 6.11906C38.1494 5.80739 37.7904 5.65159 37.3646 5.65159C36.9388 5.65159 36.5756 5.80739 36.2751 6.11906C35.9829 6.42231 35.8367 6.84343 35.8367 7.38256C35.8367 7.92168 35.9829 8.35129 36.2751 8.67137C36.5756 8.98304 36.9388 9.13884 37.3646 9.13884C37.7904 9.13884 38.1494 8.98304 38.4415 8.67137C38.7422 8.35963 38.8924 7.9343 38.8924 7.39518ZM55.1931 2.05061V10.9204H53.0515V5.60104L51.0857 10.9204H49.3574L47.3787 5.58842V10.9204H45.2371V2.05061H47.7668L50.2341 8.19121L52.6763 2.05061H55.1931ZM59.9139 11.0215C59.2292 11.0215 58.6117 10.874 58.0607 10.5792C57.5179 10.2845 57.0877 9.86321 56.7708 9.31574C56.462 8.76827 56.3073 8.12804 56.3073 7.39518C56.3073 6.6708 56.4661 6.03485 56.783 5.48731C57.1006 4.93135 57.5349 4.50603 58.0859 4.21119C58.6369 3.91635 59.2544 3.76897 59.939 3.76897C60.6237 3.76897 61.2412 3.91635 61.7922 4.21119C62.3432 4.50603 62.7775 4.93135 63.0951 5.48731C63.412 6.03485 63.5707 6.6708 63.5707 7.39518C63.5707 8.11955 63.4079 8.75979 63.0822 9.31574C62.7653 9.86321 62.3269 10.2845 61.7671 10.5792C61.2161 10.874 60.5986 11.0215 59.9139 11.0215ZM59.9139 9.15146C60.3231 9.15146 60.6692 8.99987 60.9535 8.69661C61.2453 8.39336 61.3919 7.95961 61.3919 7.39518C61.3919 6.83081 61.25 6.39707 60.9657 6.09381C60.6902 5.79056 60.3482 5.63897 59.939 5.63897C59.5217 5.63897 59.175 5.79056 58.8995 6.09381C58.624 6.38859 58.4862 6.82246 58.4862 7.39518C58.4862 7.95961 58.6199 8.39336 58.8872 8.69661C59.1627 8.99987 59.5047 9.15146 59.9139 9.15146ZM68.9647 3.7942C69.7831 3.7942 70.4345 4.0638 70.9183 4.60286C71.411 5.13357 71.6566 5.86636 71.6566 6.80136V10.9204H69.5286V7.09199C69.5286 6.62032 69.4071 6.25382 69.1649 5.99271C68.9226 5.73159 68.5976 5.60104 68.1884 5.60104C67.7792 5.60104 67.4535 5.73159 67.2113 5.99271C66.969 6.25382 66.8482 6.62032 66.8482 7.09199V10.9204H64.7067V3.87007H66.8482V4.805C67.0654 4.49334 67.3579 4.24912 67.725 4.07222C68.0921 3.8869 68.5053 3.7942 68.9647 3.7942ZM79.733 7.28152C79.733 7.48366 79.7194 7.69429 79.695 7.91327H74.8486C74.8819 8.35129 75.0189 8.68813 75.2618 8.92407C75.5129 9.15146 75.8169 9.26519 76.1752 9.26519C76.7106 9.26519 77.0825 9.03773 77.2901 8.58288H79.5701C79.4534 9.04621 79.2403 9.46319 78.9309 9.83376C78.6303 10.2043 78.251 10.495 77.7916 10.7056C77.3328 10.9162 76.8185 11.0215 76.2505 11.0215C75.5665 11.0215 74.9572 10.874 74.4225 10.5792C73.8884 10.2845 73.4711 9.86321 73.1698 9.31574C72.8692 8.76827 72.7199 8.12804 72.7199 7.39518C72.7199 6.66239 72.8658 6.02223 73.1576 5.47469C73.4582 4.92715 73.8762 4.50603 74.4102 4.21119C74.945 3.91635 75.5577 3.76897 76.2505 3.76897C76.9271 3.76897 77.5283 3.91214 78.0542 4.19857C78.5801 4.48492 78.9899 4.89349 79.2817 5.42413C79.5823 5.95484 79.733 6.5739 79.733 7.28152ZM77.5405 6.71294C77.5405 6.34231 77.4156 6.04747 77.1652 5.82849C76.9149 5.60945 76.602 5.49993 76.2261 5.49993C75.8665 5.49993 75.5625 5.60524 75.3121 5.8158C75.0698 6.02643 74.9192 6.32541 74.8608 6.71294H77.5405ZM88 3.87007L83.6171 14.2686H81.3127L82.9161 10.6803L80.0736 3.87007H82.4656L84.0813 8.27963L85.6833 3.87007H88Z" fill="#272B2A"/>
</svg>
